<svg xmlns="http://www.w3.org/2000/svg" version="1.1" width="173.79999999999998mm" height="156.2mm" viewBox = " 0 0 615.827278 553.465022" >
<!-- Front--> 
<g transform="translate(22.5000185, 22.5000185) " > 
<polygon style="stroke:#000000; fill:none; stroke-width:0.90000074" points="0, 0 23.9527756, 0 23.9527756, 10.62993 47.9055512, 10.62993 47.9055512, 0 71.8583268, 0 71.8583268, 10.62993 95.8111024, 10.62993 95.8111024, 0 119.76387799999999, 0 119.76387799999999, 28.34648 109.13394799999999, 28.34648 109.13394799999999, 56.69296 119.76387799999999, 56.69296 119.76387799999999, 77.95282 109.13394799999999, 77.95282 109.13394799999999, 99.21268 119.76387799999999, 99.21268 119.76387799999999, 120.47254 109.13394799999999, 120.47254 109.13394799999999, 148.81902 119.76387799999999, 148.81902 119.76387799999999, 177.1655 95.8111024, 177.1655 95.8111024, 166.53557 71.8583268, 166.53557 71.8583268, 177.1655 47.9055512, 177.1655 47.9055512, 166.53557 23.9527756, 166.53557 23.9527756, 177.1655 0, 177.1655 0, 148.81902 10.62993, 148.81902 10.62993, 120.47254 0, 120.47254 0, 99.21268 10.62993, 99.21268 10.62993, 77.95282 0, 77.95282 0, 56.69296 10.62993, 56.69296 10.62993, 28.34648 0, 28.34648 "/> 
</g>
<!-- Back--> 
<g transform="translate(142.2638965, 22.5000185) " > 
<polygon style="stroke:#000000; fill:none; stroke-width:0.90000074" points="0, 0 23.9527756, 0 23.9527756, 10.62993 47.9055512, 10.62993 47.9055512, 0 71.8583268, 0 71.8583268, 10.62993 95.8111024, 10.62993 95.8111024, 0 119.76387799999999, 0 119.76387799999999, 28.34648 109.13394799999999, 28.34648 109.13394799999999, 56.69296 119.76387799999999, 56.69296 119.76387799999999, 77.95282 109.13394799999999, 77.95282 109.13394799999999, 99.21268 119.76387799999999, 99.21268 119.76387799999999, 120.47254 109.13394799999999, 120.47254 109.13394799999999, 148.81902 119.76387799999999, 148.81902 119.76387799999999, 177.1655 95.8111024, 177.1655 95.8111024, 166.53557 71.8583268, 166.53557 71.8583268, 177.1655 47.9055512, 177.1655 47.9055512, 166.53557 23.9527756, 166.53557 23.9527756, 177.1655 0, 177.1655 0, 148.81902 10.62993, 148.81902 10.62993, 120.47254 0, 120.47254 0, 99.21268 10.62993, 99.21268 10.62993, 77.95282 0, 77.95282 0, 56.69296 10.62993, 56.69296 10.62993, 28.34648 0, 28.34648 "/> 
</g>
<!-- Left--> 
<g transform="translate(262.02777449999996, 22.5000185) " > 
<polygon style="stroke:#000000; fill:none; stroke-width:0.90000074" points="10.62993, 0 34.99018625, 0 34.99018625, 10.62993 69.9803725, 10.62993 69.9803725, 0 91.2402325, 0 91.2402325, 10.62993 112.5000925, 10.62993 112.5000925, 0 133.7599525, 0 133.7599525, 10.62993 155.0198125, 10.62993 155.0198125, 0 176.2796725, 0 176.2796725, 10.62993 197.5395325, 10.62993 197.5395325, 0 218.7993925, 0 218.7993925, 10.62993 240.0592525, 10.62993 240.0592525, 0 261.3191125, 0 261.3191125, 10.62993 296.30929875000004, 10.62993 296.30929875000004, 0 320.669555, 0 320.669555, 28.34648 331.299485, 28.34648 331.299485, 56.69296 320.669555, 56.69296 320.669555, 77.95282 331.299485, 77.95282 331.299485, 99.21268 320.669555, 99.21268 320.669555, 120.47254 331.299485, 120.47254 331.299485, 148.81902 320.669555, 148.81902 320.669555, 177.1655 296.30929875000004, 177.1655 296.30929875000004, 166.53557 261.3191125, 166.53557 261.3191125, 177.1655 240.0592525, 177.1655 240.0592525, 166.53557 218.7993925, 166.53557 218.7993925, 177.1655 197.5395325, 177.1655 197.5395325, 166.53557 176.2796725, 166.53557 176.2796725, 177.1655 155.0198125, 177.1655 155.0198125, 166.53557 133.7599525, 166.53557 133.7599525, 177.1655 112.5000925, 177.1655 112.5000925, 166.53557 91.2402325, 166.53557 91.2402325, 177.1655 69.9803725, 177.1655 69.9803725, 166.53557 34.99018625, 166.53557 34.99018625, 177.1655 10.62993, 177.1655 10.62993, 148.81902 0, 148.81902 0, 120.47254 10.62993, 120.47254 10.62993, 99.21268 0, 99.21268 0, 77.95282 10.62993, 77.95282 10.62993, 56.69296 0, 56.69296 0, 28.34648 10.62993, 28.34648 "/> 
</g>
<!-- Right--> 
<g transform="translate(262.02777449999996, 199.6655185) " > 
<polygon style="stroke:#000000; fill:none; stroke-width:0.90000074" points="10.62993, 0 34.99018625, 0 34.99018625, 10.62993 69.9803725, 10.62993 69.9803725, 0 91.2402325, 0 91.2402325, 10.62993 112.5000925, 10.62993 112.5000925, 0 133.7599525, 0 133.7599525, 10.62993 155.0198125, 10.62993 155.0198125, 0 176.2796725, 0 176.2796725, 10.62993 197.5395325, 10.62993 197.5395325, 0 218.7993925, 0 218.7993925, 10.62993 240.0592525, 10.62993 240.0592525, 0 261.3191125, 0 261.3191125, 10.62993 296.30929875000004, 10.62993 296.30929875000004, 0 320.669555, 0 320.669555, 28.34648 331.299485, 28.34648 331.299485, 56.69296 320.669555, 56.69296 320.669555, 77.95282 331.299485, 77.95282 331.299485, 99.21268 320.669555, 99.21268 320.669555, 120.47254 331.299485, 120.47254 331.299485, 148.81902 320.669555, 148.81902 320.669555, 177.1655 296.30929875000004, 177.1655 296.30929875000004, 166.53557 261.3191125, 166.53557 261.3191125, 177.1655 240.0592525, 177.1655 240.0592525, 166.53557 218.7993925, 166.53557 218.7993925, 177.1655 197.5395325, 177.1655 197.5395325, 166.53557 176.2796725, 166.53557 176.2796725, 177.1655 155.0198125, 177.1655 155.0198125, 166.53557 133.7599525, 166.53557 133.7599525, 177.1655 112.5000925, 177.1655 112.5000925, 166.53557 91.2402325, 166.53557 91.2402325, 177.1655 69.9803725, 177.1655 69.9803725, 166.53557 34.99018625, 166.53557 34.99018625, 177.1655 10.62993, 177.1655 10.62993, 148.81902 0, 148.81902 0, 120.47254 10.62993, 120.47254 10.62993, 99.21268 0, 99.21268 0, 77.95282 10.62993, 77.95282 10.62993, 56.69296 0, 56.69296 0, 28.34648 10.62993, 28.34648 "/> 
</g>
<!-- Top--> 
<g transform="translate(22.5000185, 199.6655185) " > 
<polygon style="stroke:#000000; fill:none; stroke-width:0.90000074" points="10.62993, 10.62993 23.9527756, 10.62993 23.9527756, 0 47.9055512, 0 47.9055512, 10.62993 71.8583268, 10.62993 71.8583268, 0 95.8111024, 0 95.8111024, 10.62993 109.13394799999999, 10.62993 109.13394799999999, 34.99018625 119.76387799999999, 34.99018625 119.76387799999999, 69.9803725 109.13394799999999, 69.9803725 109.13394799999999, 91.2402325 119.76387799999999, 91.2402325 119.76387799999999, 112.5000925 109.13394799999999, 112.5000925 109.13394799999999, 133.7599525 119.76387799999999, 133.7599525 119.76387799999999, 155.0198125 109.13394799999999, 155.0198125 109.13394799999999, 176.2796725 119.76387799999999, 176.2796725 119.76387799999999, 197.5395325 109.13394799999999, 197.5395325 109.13394799999999, 218.7993925 119.76387799999999, 218.7993925 119.76387799999999, 240.0592525 109.13394799999999, 240.0592525 109.13394799999999, 261.3191125 119.76387799999999, 261.3191125 119.76387799999999, 296.30929875000004 109.13394799999999, 296.30929875000004 109.13394799999999, 320.669555 95.8111024, 320.669555 95.8111024, 331.299485 71.8583268, 331.299485 71.8583268, 320.669555 47.9055512, 320.669555 47.9055512, 331.299485 23.9527756, 331.299485 23.9527756, 320.669555 10.62993, 320.669555 10.62993, 296.30929875000004 0, 296.30929875000004 0, 261.3191125 10.62993, 261.3191125 10.62993, 240.0592525 0, 240.0592525 0, 218.7993925 10.62993, 218.7993925 10.62993, 197.5395325 0, 197.5395325 0, 176.2796725 10.62993, 176.2796725 10.62993, 155.0198125 0, 155.0198125 0, 133.7599525 10.62993, 133.7599525 10.62993, 112.5000925 0, 112.5000925 0, 91.2402325 10.62993, 91.2402325 10.62993, 69.9803725 0, 69.9803725 0, 34.99018625 10.62993, 34.99018625 "/> 
</g>
<!-- Bottom--> 
<g transform="translate(142.2638965, 199.6655185) " > 
<polygon style="stroke:#000000; fill:none; stroke-width:0.90000074" points="10.62993, 10.62993 23.9527756, 10.62993 23.9527756, 0 47.9055512, 0 47.9055512, 10.62993 71.8583268, 10.62993 71.8583268, 0 95.8111024, 0 95.8111024, 10.62993 109.13394799999999, 10.62993 109.13394799999999, 34.99018625 119.76387799999999, 34.99018625 119.76387799999999, 69.9803725 109.13394799999999, 69.9803725 109.13394799999999, 91.2402325 119.76387799999999, 91.2402325 119.76387799999999, 112.5000925 109.13394799999999, 112.5000925 109.13394799999999, 133.7599525 119.76387799999999, 133.7599525 119.76387799999999, 155.0198125 109.13394799999999, 155.0198125 109.13394799999999, 176.2796725 119.76387799999999, 176.2796725 119.76387799999999, 197.5395325 109.13394799999999, 197.5395325 109.13394799999999, 218.7993925 119.76387799999999, 218.7993925 119.76387799999999, 240.0592525 109.13394799999999, 240.0592525 109.13394799999999, 261.3191125 119.76387799999999, 261.3191125 119.76387799999999, 296.30929875000004 109.13394799999999, 296.30929875000004 109.13394799999999, 320.669555 95.8111024, 320.669555 95.8111024, 331.299485 71.8583268, 331.299485 71.8583268, 320.669555 47.9055512, 320.669555 47.9055512, 331.299485 23.9527756, 331.299485 23.9527756, 320.669555 10.62993, 320.669555 10.62993, 296.30929875000004 0, 296.30929875000004 0, 261.3191125 10.62993, 261.3191125 10.62993, 240.0592525 0, 240.0592525 0, 218.7993925 10.62993, 218.7993925 10.62993, 197.5395325 0, 197.5395325 0, 176.2796725 10.62993, 176.2796725 10.62993, 155.0198125 0, 155.0198125 0, 133.7599525 10.62993, 133.7599525 10.62993, 112.5000925 0, 112.5000925 0, 91.2402325 10.62993, 91.2402325 10.62993, 69.9803725 0, 69.9803725 0, 34.99018625 10.62993, 34.99018625 "/> 
</g></svg>